<svg xmlns="http://www.w3.org/2000/svg" width="131.359" height="106.688" viewBox="0 0 131.359 106.688">
  <g id="グループ_103" data-name="グループ 103" transform="translate(-31 -1159)">
    <path id="Icon_awesome-twitter" data-name="Icon awesome-twitter" d="M117.856,29.969c.083,1.167.083,2.334.083,3.5,0,35.59-27.088,76.6-76.6,76.6A76.079,76.079,0,0,1,0,97.983a55.692,55.692,0,0,0,6.5.333,53.917,53.917,0,0,0,33.423-11.5,26.969,26.969,0,0,1-25.172-18.67,33.951,33.951,0,0,0,5.085.417,28.474,28.474,0,0,0,7.085-.917A26.926,26.926,0,0,1,5.334,41.221v-.333A27.113,27.113,0,0,0,17.5,44.305,26.962,26.962,0,0,1,9.168,8.3,76.525,76.525,0,0,0,64.679,36.47a30.391,30.391,0,0,1-.667-6.168A26.948,26.948,0,0,1,110.6,11.882a53,53,0,0,0,17.087-6.5,26.849,26.849,0,0,1-11.836,14.836,53.971,53.971,0,0,0,15.5-4.167,57.872,57.872,0,0,1-13.5,13.919Z" transform="translate(31 1155.619)" fill="#2699fb"/>
    <path id="パス_2390" data-name="パス 2390" d="M3255.49,3099.789s1.14,1.95-9.211,8.887-27.405,10.233-28.745,10.613-.781-.067-1.058.847c-.021.07-.039.165,0,0a46.3,46.3,0,0,0,0,5.852s23.539-5.294,33.065-11.023,10.711-12.143,10.711-12.143Z" transform="translate(-3121.242 -1937.336)" stroke="#000" stroke-width="1"/>
  </g>
</svg>
