<svg xmlns="http://www.w3.org/2000/svg" width="276.676" height="230.873" viewBox="0 0 276.676 230.873">
  <g id="グループ_167" data-name="グループ 167" transform="translate(-31 -2199.075)">
    <path id="Icon_awesome-twitter" data-name="Icon awesome-twitter" d="M248.237,59.383c.176,2.458.176,4.916.176,7.374,0,74.962-57.056,161.337-161.336,161.337A160.242,160.242,0,0,1,0,202.638a117.3,117.3,0,0,0,13.693.7,113.563,113.563,0,0,0,70.4-24.227,56.8,56.8,0,0,1-53.018-39.325,71.508,71.508,0,0,0,10.709.878A59.974,59.974,0,0,0,56.7,138.735a56.712,56.712,0,0,1-45.47-55.652v-.7a57.107,57.107,0,0,0,25.631,7.2,56.789,56.789,0,0,1-17.556-75.84A161.181,161.181,0,0,0,136.231,73.076a64.012,64.012,0,0,1-1.4-12.991,56.759,56.759,0,0,1,98.136-38.8A111.641,111.641,0,0,0,268.952,7.594a56.552,56.552,0,0,1-24.929,31.249,113.677,113.677,0,0,0,32.653-8.777,121.894,121.894,0,0,1-28.439,29.318Z" transform="translate(31 2201.855)" fill="#2699fb"/>
    <path id="パス_2389" data-name="パス 2389" d="M3243.638,3119.126" transform="translate(-3025.228 -920.052)" fill="none" stroke="#707070" stroke-width="1"/>
    <path id="パス_2390" data-name="パス 2390" d="M3298.766,3099.789s2.4,4.106-19.4,18.719-57.723,21.553-60.545,22.353-1.644-.142-2.228,1.785c-.044.148-.083.347,0,0-.5,3.466,0,12.326,0,12.326s49.58-11.151,69.645-23.218,22.561-25.576,22.561-25.576Z" transform="translate(-3050.299 -887.282)" stroke="#000" stroke-width="1"/>
  </g>
</svg>
